<svg width="73" height="73" viewBox="0 0 73 73" fill="none" xmlns="http://www.w3.org/2000/svg">
<path fill-rule="evenodd" clip-rule="evenodd" d="M38.7812 61.4934C45.1131 60.9158 50.9895 57.9562 55.2232 53.2126C59.4569 48.4691 61.7321 42.2953 61.5891 35.9388C61.446 29.5823 58.8954 23.5171 54.4526 18.9688C50.0098 14.4205 44.0061 11.7283 37.6548 11.4361C31.3034 11.144 25.0779 13.2737 20.2363 17.3949C15.3947 21.5161 12.2981 27.3215 11.5721 33.638C10.846 39.9545 12.5449 46.3111 16.3252 51.4233C20.1055 56.5355 25.6855 60.0221 31.9375 61.1786V44.4844H26.2344C25.3268 44.4844 24.4565 44.1239 23.8147 43.4821C23.173 42.8404 22.8125 41.97 22.8125 41.0625C22.8125 40.155 23.173 39.2846 23.8147 38.6429C24.4565 38.0011 25.3268 37.6406 26.2344 37.6406H31.9375V33.0325C31.9375 28.9992 33.1329 25.8785 35.2316 23.7615C37.3304 21.6445 40.3462 20.5312 44.0008 20.5312C45.2463 20.5312 46.793 20.7137 48.326 21.5031C49.1113 21.9297 49.6986 22.6467 49.9622 23.5007C50.2257 24.3547 50.1448 25.2779 49.7365 26.0729C49.3283 26.868 48.6251 27.4718 47.7775 27.7552C46.9299 28.0386 46.005 27.9791 45.2007 27.5894C44.8219 27.4287 44.4118 27.3554 44.0008 27.375C41.7514 27.375 40.6382 28.032 40.0907 28.5841C39.5432 29.1316 38.7812 30.3634 38.7812 33.0325V37.6406H44.4844C45.3919 37.6406 46.2623 38.0011 46.904 38.6429C47.5457 39.2846 47.9062 40.155 47.9062 41.0625C47.9062 41.97 47.5457 42.8404 46.904 43.4821C46.2623 44.1239 45.3919 44.4844 44.4844 44.4844H38.7812V61.4934ZM36.5 68.4375C44.9704 68.4375 53.0938 65.0727 59.0832 59.0832C65.0727 53.0938 68.4375 44.9704 68.4375 36.5C68.4375 28.0296 65.0727 19.9062 59.0832 13.9168C53.0938 7.92733 44.9704 4.5625 36.5 4.5625C28.0296 4.5625 19.9062 7.92733 13.9168 13.9168C7.92733 19.9062 4.5625 28.0296 4.5625 36.5C4.5625 44.9704 7.92733 53.0938 13.9168 59.0832C19.9062 65.0727 28.0296 68.4375 36.5 68.4375Z" fill="#FDFDFD"/>
</svg>
