<svg width="72" height="73" viewBox="0 0 72 73" fill="none" xmlns="http://www.w3.org/2000/svg">
<path d="M23.4 6.5H48.6C58.2 6.5 66 14.3 66 23.9V49.1C66 53.7148 64.1668 58.1405 60.9037 61.4037C57.6405 64.6668 53.2148 66.5 48.6 66.5H23.4C13.8 66.5 6 58.7 6 49.1V23.9C6 19.2852 7.83321 14.8595 11.0963 11.5963C14.3595 8.33321 18.7852 6.5 23.4 6.5ZM22.8 12.5C19.9357 12.5 17.1886 13.6379 15.1632 15.6632C13.1379 17.6886 12 20.4357 12 23.3V49.7C12 55.67 16.83 60.5 22.8 60.5H49.2C52.0643 60.5 54.8114 59.3621 56.8368 57.3368C58.8621 55.3114 60 52.5643 60 49.7V23.3C60 17.33 55.17 12.5 49.2 12.5H22.8ZM51.75 17C52.7446 17 53.6984 17.3951 54.4017 18.0983C55.1049 18.8016 55.5 19.7554 55.5 20.75C55.5 21.7446 55.1049 22.6984 54.4017 23.4017C53.6984 24.1049 52.7446 24.5 51.75 24.5C50.7554 24.5 49.8016 24.1049 49.0983 23.4017C48.3951 22.6984 48 21.7446 48 20.75C48 19.7554 48.3951 18.8016 49.0983 18.0983C49.8016 17.3951 50.7554 17 51.75 17ZM36 21.5C39.9782 21.5 43.7936 23.0804 46.6066 25.8934C49.4196 28.7064 51 32.5218 51 36.5C51 40.4782 49.4196 44.2936 46.6066 47.1066C43.7936 49.9196 39.9782 51.5 36 51.5C32.0218 51.5 28.2064 49.9196 25.3934 47.1066C22.5804 44.2936 21 40.4782 21 36.5C21 32.5218 22.5804 28.7064 25.3934 25.8934C28.2064 23.0804 32.0218 21.5 36 21.5ZM36 27.5C33.6131 27.5 31.3239 28.4482 29.636 30.136C27.9482 31.8239 27 34.1131 27 36.5C27 38.8869 27.9482 41.1761 29.636 42.864C31.3239 44.5518 33.6131 45.5 36 45.5C38.3869 45.5 40.6761 44.5518 42.364 42.864C44.0518 41.1761 45 38.8869 45 36.5C45 34.1131 44.0518 31.8239 42.364 30.136C40.6761 28.4482 38.3869 27.5 36 27.5Z" fill="#FDFDFD"/>
</svg>
