<svg width="63" height="64" viewBox="0 0 63 64" fill="none" xmlns="http://www.w3.org/2000/svg">
<path d="M7.875 53.0001C6.43125 53.0001 5.19575 52.4864 4.1685 51.4592C3.14125 50.4319 2.62675 49.1956 2.625 47.7501V45.6501C2.625 44.1626 3.00825 42.7958 3.77475 41.5498C4.54125 40.3038 5.558 39.3518 6.825 38.6938C9.5375 37.3376 12.2937 36.3208 15.0938 35.6436C17.8938 34.9663 20.7375 34.6268 23.625 34.6251C24.6313 34.6251 25.627 34.6688 26.6122 34.7563C27.5975 34.8438 28.5924 34.9751 29.5969 35.1501C30.2094 35.2376 30.6469 35.5771 30.9094 36.1686C31.1719 36.7601 31.1938 37.3612 30.975 37.9719C30.7563 38.5827 30.3406 39.1191 29.7281 39.5811C29.1156 40.0431 28.2406 40.2067 27.1031 40.0719C26.4906 39.9844 25.9 39.9302 25.3312 39.9092C24.7625 39.8882 24.1938 39.8768 23.625 39.8751C21.175 39.8751 18.7469 40.1708 16.3406 40.7623C13.9344 41.3538 11.55 42.2393 9.1875 43.4188C8.79375 43.6376 8.47613 43.9438 8.23463 44.3376C7.99313 44.7313 7.87325 45.1688 7.875 45.6501V47.7501H27.2344C28.1094 47.7501 28.7656 48.0239 29.2031 48.5717C29.6406 49.1194 29.8594 49.7206 29.8594 50.3751C29.8594 51.0296 29.6406 51.6316 29.2031 52.1811C28.7656 52.7306 28.1094 53.0036 27.2344 53.0001H7.875ZM23.625 32.0001C20.7375 32.0001 18.2656 30.9719 16.2094 28.9157C14.1531 26.8594 13.125 24.3876 13.125 21.5001C13.125 18.6126 14.1531 16.1407 16.2094 14.0844C18.2656 12.0282 20.7375 11.0001 23.625 11.0001C26.5125 11.0001 28.9844 12.0282 31.0406 14.0844C33.0969 16.1407 34.125 18.6126 34.125 21.5001C34.125 24.3876 33.0969 26.8594 31.0406 28.9157C28.9844 30.9719 26.5125 32.0001 23.625 32.0001ZM49.875 21.5001C49.875 24.3876 48.8469 26.8594 46.7906 28.9157C44.7344 30.9719 42.2625 32.0001 39.375 32.0001C38.8937 32.0001 38.2812 31.9458 37.5375 31.8373C36.7938 31.7288 36.1813 31.6081 35.7 31.4751C36.8813 30.0751 37.7895 28.5219 38.4247 26.8157C39.06 25.1094 39.3768 23.3376 39.375 21.5001C39.3732 19.6626 39.0565 17.8907 38.4247 16.1844C37.793 14.4782 36.8848 12.9251 35.7 11.5251C36.3125 11.3063 36.925 11.1637 37.5375 11.0972C38.15 11.0307 38.7625 10.9983 39.375 11.0001C42.2625 11.0001 44.7344 12.0282 46.7906 14.0844C48.8469 16.1407 49.875 18.6126 49.875 21.5001ZM23.625 26.7501C25.0688 26.7501 26.3051 26.2364 27.3341 25.2092C28.3631 24.1819 28.8768 22.9456 28.875 21.5001C28.8732 20.0546 28.3596 18.8191 27.3341 17.7936C26.3086 16.7681 25.0723 16.2536 23.625 16.2501C22.1777 16.2466 20.9422 16.7611 19.9185 17.7936C18.8947 18.8261 18.3802 20.0616 18.375 21.5001C18.3698 22.9386 18.8842 24.1749 19.9185 25.2092C20.9527 26.2434 22.1882 26.7571 23.625 26.7501ZM44.625 50.3751C46.1125 50.3751 47.3489 49.9376 48.3341 49.0626C49.3194 48.1876 49.833 46.8751 49.875 45.1251C49.9188 43.6376 49.427 42.3907 48.3997 41.3844C47.3725 40.3782 46.1143 39.8751 44.625 39.8751C43.1357 39.8751 41.8889 40.3782 40.8844 41.3844C39.8799 42.3907 39.3768 43.6376 39.375 45.1251C39.3732 46.6126 39.8764 47.8594 40.8844 48.8657C41.8924 49.8719 43.1393 50.3751 44.625 50.3751ZM44.625 55.6251C41.7375 55.6251 39.2656 54.5969 37.2094 52.5407C35.1531 50.4844 34.125 48.0126 34.125 45.1251C34.125 42.2376 35.1531 39.7657 37.2094 37.7094C39.2656 35.6532 41.7375 34.6251 44.625 34.6251C47.5125 34.6251 49.9844 35.6532 52.0406 37.7094C54.0969 39.7657 55.125 42.2376 55.125 45.1251C55.125 46.1313 55.0051 47.0833 54.7654 47.9811C54.5256 48.8788 54.1643 49.7206 53.6813 50.5063L58.5375 55.3626C59.0187 55.8438 59.2594 56.4563 59.2594 57.2001C59.2594 57.9438 59.0187 58.5563 58.5375 59.0376C58.0562 59.5188 57.4438 59.7594 56.7 59.7594C55.9562 59.7594 55.3438 59.5188 54.8625 59.0376L50.0062 54.1813C49.2187 54.6626 48.377 55.0239 47.481 55.2654C46.585 55.5069 45.633 55.6268 44.625 55.6251Z" fill="#515151"/>
</svg>
