<svg width="65" height="66" viewBox="0 0 65 66" fill="none" xmlns="http://www.w3.org/2000/svg">
<path d="M32.4999 14.0417C31.4225 14.0417 30.3892 14.4697 29.6273 15.2315C28.8655 15.9934 28.4374 17.0267 28.4374 18.1042C28.4374 19.1816 28.8655 20.2149 29.6273 20.9768C30.3892 21.7387 31.4225 22.1667 32.4999 22.1667C33.5774 22.1667 34.6107 21.7387 35.3726 20.9768C36.1344 20.2149 36.5624 19.1816 36.5624 18.1042C36.5624 17.0267 36.1344 15.9934 35.3726 15.2315C34.6107 14.4697 33.5774 14.0417 32.4999 14.0417ZM23.0208 18.1042C23.0208 16.8593 23.266 15.6267 23.7423 14.4766C24.2187 13.3266 24.9169 12.2816 25.7972 11.4014C26.6774 10.5212 27.7224 9.82293 28.8724 9.34656C30.0225 8.87019 31.2551 8.625 32.4999 8.625C33.7448 8.625 34.9774 8.87019 36.1275 9.34656C37.2775 9.82293 38.3225 10.5212 39.2027 11.4014C40.083 12.2816 40.7812 13.3266 41.2576 14.4766C41.7339 15.6267 41.9791 16.8593 41.9791 18.1042C41.9791 20.6182 40.9804 23.0293 39.2027 24.8069C37.425 26.5846 35.014 27.5833 32.4999 27.5833C29.9859 27.5833 27.5749 26.5846 25.7972 24.8069C24.0195 23.0293 23.0208 20.6182 23.0208 18.1042ZM13.5416 22.1667C12.8233 22.1667 12.1344 22.452 11.6265 22.9599C11.1186 23.4678 10.8333 24.1567 10.8333 24.875C10.8333 25.5933 11.1186 26.2822 11.6265 26.7901C12.1344 27.298 12.8233 27.5833 13.5416 27.5833C14.2599 27.5833 14.9488 27.298 15.4567 26.7901C15.9646 26.2822 16.2499 25.5933 16.2499 24.875C16.2499 24.1567 15.9646 23.4678 15.4567 22.9599C14.9488 22.452 14.2599 22.1667 13.5416 22.1667ZM5.41661 24.875C5.41661 22.7201 6.27264 20.6535 7.79637 19.1298C9.3201 17.606 11.3867 16.75 13.5416 16.75C15.6965 16.75 17.7631 17.606 19.2869 19.1298C20.8106 20.6535 21.6666 22.7201 21.6666 24.875C21.6666 27.0299 20.8106 29.0965 19.2869 30.6202C17.7631 32.144 15.6965 33 13.5416 33C11.3867 33 9.3201 32.144 7.79637 30.6202C6.27264 29.0965 5.41661 27.0299 5.41661 24.875ZM48.7499 24.875C48.7499 24.1567 49.0353 23.4678 49.5432 22.9599C50.0511 22.452 50.74 22.1667 51.4583 22.1667C52.1766 22.1667 52.8655 22.452 53.3734 22.9599C53.8813 23.4678 54.1666 24.1567 54.1666 24.875C54.1666 25.5933 53.8813 26.2822 53.3734 26.7901C52.8655 27.298 52.1766 27.5833 51.4583 27.5833C50.74 27.5833 50.0511 27.298 49.5432 26.7901C49.0353 26.2822 48.7499 25.5933 48.7499 24.875ZM51.4583 16.75C49.3034 16.75 47.2368 17.606 45.713 19.1298C44.1893 20.6535 43.3333 22.7201 43.3333 24.875C43.3333 27.0299 44.1893 29.0965 45.713 30.6202C47.2368 32.144 49.3034 33 51.4583 33C53.6132 33 55.6798 32.144 57.2035 30.6202C58.7273 29.0965 59.5833 27.0299 59.5833 24.875C59.5833 22.7201 58.7273 20.6535 57.2035 19.1298C55.6798 17.606 53.6132 16.75 51.4583 16.75ZM21.6666 39.7708C21.6666 36.0333 24.6999 33 28.4374 33H36.5624C40.2999 33 43.3333 36.0333 43.3333 39.7708V46.5417C43.3333 49.4148 42.1919 52.1703 40.1603 54.202C38.1286 56.2336 35.3731 57.375 32.4999 57.375C29.6268 57.375 26.8713 56.2336 24.8396 54.202C22.808 52.1703 21.6666 49.4148 21.6666 46.5417V39.7708ZM28.4374 38.4167C28.0783 38.4167 27.7339 38.5593 27.4799 38.8133C27.2259 39.0672 27.0833 39.4117 27.0833 39.7708V46.5417C27.0833 47.9783 27.654 49.356 28.6698 50.3718C29.6856 51.3876 31.0634 51.9583 32.4999 51.9583C33.9365 51.9583 35.3143 51.3876 36.3301 50.3718C37.3459 49.356 37.9166 47.9783 37.9166 46.5417V39.7708C37.9166 39.4117 37.7739 39.0672 37.52 38.8133C37.266 38.5593 36.9216 38.4167 36.5624 38.4167H28.4374ZM16.2499 39.7708C16.2499 38.2054 16.5424 36.7104 17.0841 35.34L10.4162 37.1275C8.68265 37.5922 7.20453 38.7261 6.30666 40.2801C5.40879 41.8342 5.16464 43.6811 5.62786 45.415L6.6787 49.3421C7.04701 50.7165 7.68247 52.0048 8.54876 53.1336C9.41506 54.2623 10.4952 55.2094 11.7276 55.9206C12.9599 56.6319 14.3203 57.0934 15.7311 57.2788C17.1418 57.4642 18.5752 57.3699 19.9495 57.0012L20.0416 56.9742C18.7921 55.4856 17.8198 53.7849 17.1708 51.9529C15.9738 51.959 14.8085 51.5685 13.857 50.8424C12.9054 50.1162 12.2212 49.0953 11.9112 47.9392L10.8604 44.0121C10.7678 43.6651 10.8167 43.2956 10.9965 42.9848C11.1763 42.674 11.4722 42.4473 11.8191 42.3546L16.2499 41.1629V39.7708ZM45.0449 56.9958L44.9583 56.9796C46.1933 55.5008 47.1737 53.8054 47.8291 51.9529C49.0252 51.9578 50.1892 51.5668 51.1396 50.8407C52.0901 50.1146 52.7735 49.0944 53.0833 47.9392L54.1287 44.0121C54.2213 43.6651 54.1723 43.2956 53.9925 42.9848C53.8127 42.674 53.5169 42.4473 53.1699 42.3546L48.7499 41.1683V39.7708C48.7499 38.2054 48.4574 36.7158 47.9212 35.34L54.5729 37.1275C56.3064 37.5922 57.7845 38.7261 58.6824 40.2801C59.5803 41.8342 59.8244 43.6811 59.3612 45.415L58.3104 49.3421C57.9421 50.7165 57.3066 52.0048 56.4403 53.1336C55.574 54.2623 54.4938 55.2094 53.2615 55.9206C52.0291 56.6319 50.6687 57.0934 49.258 57.2788C47.8473 57.4642 46.4138 57.3699 45.0395 57.0012" fill="#515151"/>
</svg>
