<svg width="539" height="22" viewBox="0 0 539 22" fill="none" xmlns="http://www.w3.org/2000/svg">
<line y1="10.5" x2="237.5" y2="10.5" stroke="#515151"/>
<path d="M269.995 10.458C269.995 11.6133 269.699 12.5252 269.106 13.1938C268.514 13.8625 267.721 14.1968 266.726 14.1968C265.723 14.1968 264.925 13.8625 264.333 13.1938C263.745 12.5252 263.451 11.6133 263.451 10.458C263.451 9.30273 263.745 8.39079 264.333 7.72217C264.925 7.04932 265.723 6.71289 266.726 6.71289C267.721 6.71289 268.514 7.04932 269.106 7.72217C269.699 8.39079 269.995 9.30273 269.995 10.458ZM268.764 10.458C268.764 9.53971 268.584 8.8584 268.224 8.41406C267.864 7.96549 267.365 7.74121 266.726 7.74121C266.079 7.74121 265.575 7.96549 265.215 8.41406C264.86 8.8584 264.682 9.53971 264.682 10.458C264.682 11.3467 264.862 12.0216 265.222 12.4829C265.581 12.9399 266.083 13.1685 266.726 13.1685C267.361 13.1685 267.858 12.9421 268.218 12.4893C268.582 12.0322 268.764 11.3551 268.764 10.458ZM276.273 8.21094H276.209C276.032 8.16862 275.858 8.139 275.689 8.12207C275.524 8.10091 275.327 8.09033 275.099 8.09033C274.73 8.09033 274.375 8.17285 274.032 8.33789C273.689 8.4987 273.359 8.70817 273.042 8.96631V14H271.849V6.90967H273.042V7.95703C273.516 7.57617 273.933 7.30745 274.292 7.15088C274.656 6.99007 275.027 6.90967 275.403 6.90967C275.611 6.90967 275.761 6.91602 275.854 6.92871C275.947 6.93717 276.087 6.95622 276.273 6.98584V8.21094Z" fill="#515151"/>
<line x1="301.5" y1="10.5" x2="539" y2="10.5" stroke="#515151"/>
</svg>
