<svg width="72" height="72" viewBox="0 0 72 72" fill="none" xmlns="http://www.w3.org/2000/svg">
<path fill-rule="evenodd" clip-rule="evenodd" d="M59.259 13.9771C59.5184 13.6804 59.7169 13.3356 59.843 12.9622C59.9692 12.5889 60.0206 12.1943 59.9942 11.8011C59.9679 11.4079 59.8644 11.0237 59.6896 10.6705C59.5148 10.3173 59.2722 10.002 58.9755 9.74256C58.6788 9.48313 58.334 9.28468 57.9606 9.15853C57.5873 9.03237 57.1927 8.98099 56.7995 9.00732C56.4063 9.03364 56.0222 9.13716 55.6689 9.31196C55.3157 9.48675 55.0004 9.7294 54.741 10.0261L39.411 27.5461L26.4 10.2001C26.1206 9.82747 25.7582 9.52506 25.3416 9.31678C24.9251 9.1085 24.4657 9.00006 24 9.00006H12C11.4429 9.00006 10.8967 9.15521 10.4228 9.44811C9.94888 9.74101 9.56588 10.1601 9.31672 10.6584C9.06756 11.1567 8.96209 11.7146 9.01212 12.2695C9.06216 12.8244 9.26572 13.3544 9.6 13.8001L28.911 39.5461L12.741 58.0261C12.4816 58.3227 12.2831 58.6676 12.157 59.0409C12.0308 59.4143 11.9794 59.8088 12.0058 60.202C12.0321 60.5952 12.1356 60.9794 12.3104 61.3326C12.4852 61.6858 12.7278 62.0011 13.0245 62.2606C13.3212 62.52 13.666 62.7184 14.0394 62.8446C14.4127 62.9708 14.8073 63.0221 15.2005 62.9958C15.5937 62.9695 15.9778 62.866 16.3311 62.6912C16.6843 62.5164 16.9996 62.2737 17.259 61.9771L32.589 44.4541L45.6 61.8001C45.8794 62.1727 46.2418 62.4751 46.6584 62.6833C47.0749 62.8916 47.5343 63.0001 48 63.0001H60C60.5571 63.0001 61.1033 62.8449 61.5772 62.552C62.0511 62.2591 62.4341 61.84 62.6833 61.3417C62.9324 60.8434 63.0379 60.2855 62.9879 59.7306C62.9378 59.1758 62.7343 58.6458 62.4 58.2001L43.089 32.4541L59.259 13.9771ZM49.5 57.0001L18 15.0001H22.5L54 57.0001H49.5Z" fill="#FDFDFD"/>
</svg>
